# xmcd
#
# Track frame offsets:
#	150
#	16998
#	30495
#	43011
#	57291
#	71288
#	83068
#	94552
#	106587
#	119031
#	134369
#	148211
#	161648
#	177056
#	191074
#	204696
#
# Disc length: 2940 seconds
#
# Revision: 3
# Processed by: cddbd v1.5.2PL0 Copyright (c) Steve Scherf et al.
# Submitted via: EasyCDDAExtractor 2010.6.0.0
#
DISCID=d90b7a10
DTITLE=Various Artist - Cowboy Lieder  CD 02
DYEAR=1900
DGENRE=Country
TTITLE0=Bruce Low - Sag, warum willst du von mir gehen
TTITLE1=Kilima Hawaiians - Melodie der Prärie
TTITLE2=Die Sunnies - Smokie
TTITLE3=Kilima Hawaiians - Frühling in Texas
TTITLE4=Evelyn Künneke - In Arizona und Arkansas
TTITLE5=Gerhard Wendland - Geisterreiter
TTITLE6=Lys Assia - Ponylied
TTITLE7=Kilima Hawaiians - Cowboys Pfeif-Song
TTITLE8=Paul Schröder - Jimmy kommt wieder
TTITLE9=Reneè Franke - Wenn ich will, stiehlt der Bill für mich Pferde
TTITLE10=Bruce Low - Das alte Haus von Rocky Docky
TTITLE11=Kilima Hawaiians - Verlassen in der Prärie
TTITLE12=Willy Schneider - Heimweh nach Virginia
TTITLE13=Kilima Hawaiians - Nur ein Lied seiner Gitarre
TTITLE14=Die Drei Nickels - Der alte Schimmel ist im Himmel
TTITLE15=Studio Orchester - Spiel mir das Lied vom Tod
EXTD=
EXTT0=
EXTT1=
EXTT2=
EXTT3=
EXTT4=
EXTT5=
EXTT6=
EXTT7=
EXTT8=
EXTT9=
EXTT10=
EXTT11=
EXTT12=
EXTT13=
EXTT14=
EXTT15=
PLAYORDER=
